<svg xmlns="http://www.w3.org/2000/svg" viewBox="0 0 120 120" width="240" height="240">
  <!-- Illustrated demo portrait for the guided demo. Not a real person. -->
  <rect width="120" height="120" fill="#e2e6ea"/>
  <path d="M18 120 C18 92 40 84 60 84 C80 84 102 92 102 120 Z" fill="#2b5673"/>
  <path d="M46 78 L46 90 C52 96 68 96 74 90 L74 78 Z" fill="#f0c9a8"/>
  <ellipse cx="60" cy="56" rx="22" ry="26" fill="#f0c9a8"/>
  <path d="M36 44 C40 22 82 22 84 44 L84 50 C76 36 44 36 36 50 Z" fill="#a8783f"/>
  <circle cx="52" cy="58" r="1.8" fill="#1a1815" opacity="0.8"/>
  <circle cx="68" cy="58" r="1.8" fill="#1a1815" opacity="0.8"/>
  <path d="M54 68 Q60 72 66 68" stroke="#1a1815" stroke-width="1.4" fill="none" stroke-linecap="round" opacity="0.7"/>
</svg>
